<?xml version="1.0" standalone="no"?>
<!DOCTYPE svg PUBLIC "-//W3C//DTD SVG 20010904//EN"
 "http://www.w3.org/TR/2001/REC-SVG-20010904/DTD/svg10.dtd">
<svg version="1.0" xmlns="http://www.w3.org/2000/svg"
 width="225.000000pt" height="225.000000pt" viewBox="0 0 225.000000 225.000000"
 preserveAspectRatio="xMidYMid meet">
<metadata>
Created by potrace 1.11, written by Peter Selinger 2001-2013
</metadata>
<g transform="translate(0.000000,225.000000) scale(0.100000,-0.100000)"
fill="#000000" stroke="none">
<path d="M1385 1346 c-91 -39 -139 -117 -139 -221 0 -82 23 -136 79 -183 72
-59 199 -71 286 -26 49 24 50 24 44 5 -6 -20 -3 -21 73 -21 l78 0 15 33 c14
31 16 32 82 35 l68 3 14 -36 15 -35 80 0 c44 0 80 2 80 5 0 3 -143 373 -167
433 -4 8 -31 12 -87 12 l-81 0 -79 -200 -78 -199 -45 54 c-25 30 -48 55 -52
55 -3 0 -15 -7 -25 -15 -31 -24 -80 -19 -110 11 -36 37 -37 104 -1 139 28 29
83 33 118 10 22 -14 25 -12 65 40 24 30 41 59 38 64 -3 5 -26 18 -51 30 -52
25 -171 28 -220 7z m549 -243 c7 -21 4 -23 -28 -23 -20 0 -36 1 -36 3 0 2 8
26 17 53 l17 49 12 -30 c6 -17 15 -40 18 -52z"/>
<path d="M102 1328 c9 -13 47 -73 87 -135 l71 -112 0 -91 0 -90 75 0 75 0 0
93 1 92 84 124 c47 69 85 123 86 120 0 -2 26 -98 58 -214 l57 -210 79 0 78 0
31 118 c17 64 33 117 36 117 4 0 19 -54 35 -120 l29 -120 77 0 78 0 15 53 c30
105 106 384 106 391 0 4 -34 6 -77 4 l-76 -3 -22 -112 c-12 -62 -24 -115 -27
-118 -2 -3 -15 41 -27 97 -12 57 -25 111 -27 121 -5 14 -18 17 -84 17 -90 0
-80 12 -106 -125 -9 -49 -20 -96 -24 -104 -4 -8 -17 39 -30 108 l-22 121 -164
0 -164 0 -30 -60 c-17 -33 -34 -60 -38 -60 -5 0 -21 27 -37 60 l-29 60 -94 0
-94 0 14 -22z"/>
</g>
</svg>
